<?xml version="1.0" encoding="UTF-8" standalone="no"?>
<svg
   width="160"
   height="35"
   viewBox="0 0 160 35"
   version="1.1"
   id="svg317"
   sodipodi:docname="horiztonal-white1.5x.svg"
   inkscape:version="1.2.1 (9c6d41e410, 2022-07-14)"
   xmlns:inkscape="http://www.inkscape.org/namespaces/inkscape"
   xmlns:sodipodi="http://sodipodi.sourceforge.net/DTD/sodipodi-0.dtd"
   xmlns="http://www.w3.org/2000/svg"
   xmlns:svg="http://www.w3.org/2000/svg"
   xmlns:rdf="http://www.w3.org/1999/02/22-rdf-syntax-ns#"
   xmlns:cc="http://creativecommons.org/ns#"
   xmlns:dc="http://purl.org/dc/elements/1.1/">
  <defs
     id="defs321" />
  <sodipodi:namedview
     id="namedview319"
     pagecolor="#ffffff"
     bordercolor="#000000"
     borderopacity="0.25"
     inkscape:showpageshadow="2"
     inkscape:pageopacity="0.0"
     inkscape:pagecheckerboard="0"
     inkscape:deskcolor="#d1d1d1"
     showgrid="false"
     inkscape:zoom="7.7"
     inkscape:cx="72.337662"
     inkscape:cy="17.597403"
     inkscape:window-width="1920"
     inkscape:window-height="1001"
     inkscape:window-x="-9"
     inkscape:window-y="-9"
     inkscape:window-maximized="1"
     inkscape:current-layer="horiztonal-white" />
  <title
     id="title308">CB1059C1-FF6E-4BD6-A0BD-CEEB03527442@1.5x</title>
  <g
     id="up-to.-code"
     stroke="none"
     stroke-width="1"
     fill="none"
     fill-rule="evenodd"
     transform="translate(-10)">
    <g
       id="logo"
       transform="translate(-606,-363)">
      <g
         id="horiztonal-white"
         transform="translate(606,363)">
        <path
           d="m 16.671763,30.547929 c 1.054824,0 1.995375,-0.143195 2.821654,-0.429586 0.826279,-0.28639 1.529495,-0.69428 2.109648,-1.223668 0.580154,-0.529389 1.019664,-1.16292 1.318531,-1.900592 0.298866,-0.737673 0.4483,-2.486391 0.4483,-2.486391 v 0 -8.8 c 0,-0.607495 -0.149434,-1.024063 -0.4483,-1.249704 -0.298867,-0.225641 -0.764748,-0.338461 -1.397642,-0.338461 -0.298867,0 -0.597734,0.02604 -0.896601,0.07811 -0.298867,0.05207 -0.685636,0.130178 -0.685636,0.130178 v 0 10.049704 c 0,1.093491 -0.307657,1.930966 -0.922971,2.512426 -0.615314,0.581459 -1.397642,0.872189 -2.346983,0.872189 -0.949342,0 -1.73167,-0.29073 -2.346984,-0.872189 -0.615314,-0.58146 -0.922971,-2.512426 -0.922971,-2.512426 v 0 -8.669823 c 0,-0.607495 -0.145038,-1.024063 -0.435115,-1.249704 -0.290077,-0.225641 -0.751562,-0.338461 -1.384457,-0.338461 -0.298867,0 -0.602129,0.02604 -0.909786,0.07811 C 10.364793,14.249704 10,14.327811 10,14.327811 v 0 10.179881 c 0,0.919921 0.149433,1.748718 0.4483,2.486391 0.298867,0.737672 0.733982,1.371203 1.305345,1.900592 0.571363,0.529388 1.270184,0.937278 2.096463,1.223668 0.826279,0.286391 1.76683,0.429586 2.821655,0.429586 z M 28.296404,35 c 0.334028,0 0.632895,-0.02604 0.8966,-0.07811 0.263707,-0.05207 0.632895,-0.130178 0.632895,-0.130178 v 0 -4.790533 c 0.351608,0.138856 0.742772,0.256016 1.173492,0.35148 0.43072,0.09546 0.900995,0.143195 1.410827,0.143195 0.914181,0 1.753645,-0.138856 2.518393,-0.416568 0.764747,-0.277712 1.424012,-0.69428 1.977795,-1.249704 0.553783,-0.555424 0.988898,-1.241026 1.305345,-2.056805 0.316447,-0.815779 0.474671,-1.770414 0.474671,-2.863905 0,-1.128205 -0.167014,-2.100198 -0.501042,-2.915977 -0.334027,-0.815779 -0.799908,-1.488363 -1.397642,-2.017751 -0.597733,-0.529389 -1.305345,-0.919921 -2.122833,-1.171598 -0.817489,-0.251676 -1.709694,-0.377515 -2.676617,-0.377515 -0.949341,0 -1.801991,0.108482 -2.557948,0.325444 -0.755957,0.216963 -1.388852,0.472979 -1.898684,0.768048 -0.369188,0.225641 -0.637289,0.468639 -0.804303,0.728994 -0.167014,0.260355 -0.250521,1.015384 -0.250521,1.015384 v 0 13.2 c 0,0.572781 0.149434,0.971992 0.448301,1.197633 C 27.224,34.88718 27.68109,35 28.296404,35 Z m 3.612773,-7.133728 c -0.43951,0 -0.830674,-0.05207 -1.173492,-0.156213 -0.342818,-0.104142 -0.936157,-0.416568 -0.936157,-0.416568 v 0 -6.691124 c 0.263706,-0.138856 0.575759,-0.269034 0.936157,-0.390533 0.360398,-0.121499 0.777933,-0.182248 1.252603,-0.182248 0.966923,0 1.758041,0.295069 2.373355,0.885207 0.615314,0.590138 0.922971,1.588166 0.922971,2.994083 0,1.353846 -0.298867,2.351873 -0.896601,2.994083 -0.597733,0.642209 -1.424012,0.963313 -2.478836,0.963313 z m 13.346433,2.447337 c 0.316447,0 0.624104,-0.02604 0.922971,-0.07811 0.298867,-0.05207 0.659265,-0.130178 0.659265,-0.130178 v 0 -13.017751 h 3.639144 c 0.386768,0 0.69003,-0.121499 0.909785,-0.364497 0.219755,-0.242998 0.329633,-0.598817 0.329633,-1.067456 0,-0.277712 -0.03956,-0.533727 -0.118668,-0.768047 -0.07911,-0.23432 -0.25052,-0.559763 -0.25052,-0.559763 v 0 H 39.849637 c -0.386769,0 -0.690031,0.117159 -0.909786,0.351479 -0.219755,0.23432 -0.329633,0.594477 -0.329633,1.080473 0,0.277712 0.03956,0.529389 0.118668,0.75503 0.07911,0.225641 0.250521,0.572781 0.250521,0.572781 v 0 h 4.430261 v 11.63787 c 0,0.572781 0.140643,0.98067 0.42193,1.223668 0.281286,0.242998 0.755957,0.364497 1.424012,0.364497 z m 12.44213,0.208284 c 0.984503,0 1.872313,-0.151873 2.663431,-0.455621 0.791118,-0.303747 1.467964,-0.742012 2.030537,-1.314793 0.562573,-0.572781 0.997687,-1.262722 1.305344,-2.069822 0.307657,-0.807101 0.461486,-1.714004 0.461486,-2.72071 0,-0.989349 -0.153829,-1.887574 -0.461486,-2.694675 -0.307657,-0.8071 -0.747167,-1.497041 -1.31853,-2.069822 -0.571363,-0.572781 -1.252603,-1.011046 -2.043721,-1.314793 -0.791118,-0.303748 -1.670139,-0.455622 -2.637061,-0.455622 -0.966922,0 -1.845942,0.151874 -2.63706,0.455622 -0.791118,0.303747 -1.472359,0.737672 -2.043722,1.301775 -0.571363,0.564102 -1.010873,1.249704 -1.31853,2.056805 -0.307657,0.8071 -0.461486,1.714004 -0.461486,2.72071 0,1.024063 0.153829,1.939645 0.461486,2.746745 0.307657,0.807101 0.742772,1.492703 1.305345,2.056805 0.562573,0.564103 1.239418,0.998028 2.030536,1.301775 0.791118,0.303748 1.678929,0.455621 2.663431,0.455621 z m 0,-2.629585 c -0.966922,0 -1.718484,-0.338462 -2.254686,-1.015385 C 54.906851,26.2 54.63875,25.228008 54.63875,23.960947 c 0,-1.249704 0.272496,-2.217357 0.817489,-2.902959 0.544992,-0.685601 1.292159,-1.028402 2.241501,-1.028402 0.949342,0 1.696509,0.342801 2.241502,1.028402 0.544992,0.685602 0.817488,1.653255 0.817488,2.902959 0,1.249704 -0.268101,2.217357 -0.804303,2.902958 -0.536203,0.685602 -1.287765,1.028403 -2.254687,1.028403 z m 17.192376,2.655621 c 0.949342,0 1.744855,-0.09112 2.38654,-0.273373 0.641684,-0.182248 1.138331,-0.377515 1.489939,-0.585799 0.369188,-0.190927 0.632894,-0.407889 0.791118,-0.650887 0.158223,-0.242998 0.237335,-0.512032 0.237335,-0.807101 0,-0.34714 -0.07911,-0.655227 -0.237335,-0.92426 -0.158224,-0.269034 -0.360398,-0.481657 -0.606524,-0.63787 -0.457091,0.295069 -0.980108,0.551085 -1.569051,0.768047 -0.588944,0.216963 -1.287764,0.325444 -2.096463,0.325444 -1.547075,0 -2.777704,-0.45996 -3.691885,-1.379882 -0.91418,-0.919921 -1.371271,-2.299802 -1.371271,-4.139644 0,-1.805129 0.443905,-3.18501 1.331716,-4.139645 0.88781,-0.954636 2.078882,-1.431953 3.573216,-1.431953 0.826279,0 1.520705,0.121499 2.083278,0.364497 0.562573,0.242998 1.072405,0.512031 1.529495,0.807101 0.246126,-0.138857 0.465881,-0.334123 0.659265,-0.585799 0.193384,-0.251677 0.290077,-0.551085 0.290077,-0.898225 0,-0.329783 -0.114273,-0.642209 -0.342818,-0.937278 -0.228545,-0.295069 -0.562573,-0.555424 -1.002083,-0.781065 -0.43951,-0.225641 -0.966922,-0.403551 -1.582236,-0.533728 -0.615314,-0.130178 -1.30095,-0.195266 -2.056907,-0.195266 -1.089985,0 -2.122834,0.182248 -3.098546,0.546745 -0.975712,0.364497 -1.828362,0.898225 -2.557949,1.601184 -0.729586,0.702958 -1.305344,1.570808 -1.727274,2.60355 -0.42193,1.032741 -0.632895,2.226035 -0.632895,3.579882 0,1.405917 0.210965,2.629585 0.632895,3.671005 0.42193,1.041421 1.002083,1.904931 1.74046,2.590533 0.738376,0.685602 1.604211,1.197633 2.597504,1.536095 0.993293,0.338461 2.070092,0.507692 3.230399,0.507692 z m 12.44213,-0.02604 c 0.984503,0 1.872313,-0.151873 2.663431,-0.455621 0.791118,-0.303747 1.467963,-0.742012 2.030536,-1.314793 0.562573,-0.572781 0.997688,-1.262722 1.305345,-2.069822 0.307657,-0.807101 0.461486,-1.714004 0.461486,-2.72071 0,-0.989349 -0.153829,-1.887574 -0.461486,-2.694675 -0.307657,-0.8071 -0.747167,-1.497041 -1.31853,-2.069822 -0.571363,-0.572781 -1.252604,-1.011046 -2.043722,-1.314793 -0.791118,-0.303748 -1.670138,-0.455622 -2.63706,-0.455622 -0.966922,0 -1.845942,0.151874 -2.63706,0.455622 -0.791118,0.303747 -1.472359,0.737672 -2.043722,1.301775 -0.571363,0.564102 -1.010873,1.249704 -1.31853,2.056805 -0.307657,0.8071 -0.461486,1.714004 -0.461486,2.72071 0,1.024063 0.153829,1.939645 0.461486,2.746745 0.307657,0.807101 0.742772,1.492703 1.305345,2.056805 0.562572,0.564103 1.239418,0.998028 2.030536,1.301775 0.791118,0.303748 1.678929,0.455621 2.663431,0.455621 z m 0,-2.629585 c -0.966922,0 -1.718484,-0.338462 -2.254687,-1.015385 C 84.541357,26.2 84.273256,25.228008 84.273256,23.960947 c 0,-1.249704 0.272496,-2.217357 0.817489,-2.902959 0.544992,-0.685601 1.292159,-1.028402 2.241501,-1.028402 0.949342,0 1.696509,0.342801 2.241501,1.028402 0.544993,0.685602 0.817489,1.653255 0.817489,2.902959 0,1.249704 -0.268101,2.217357 -0.804303,2.902958 -0.536203,0.685602 -1.287765,1.028403 -2.254687,1.028403 z m 14.973704,2.629585 c 0.94935,0 1.78442,-0.117159 2.50521,-0.351479 0.7208,-0.234319 1.30095,-0.490335 1.74046,-0.768047 0.35161,-0.225641 0.61531,-0.459961 0.79112,-0.702959 0.1758,-0.242998 0.2637,-0.564102 0.2637,-0.963313 v 0 -13.2 c 0,-0.572781 -0.14503,-0.971992 -0.43511,-1.197634 C 106.88125,13.112821 106.41977,13 105.78687,13 c -0.31644,0 -0.61091,0.0217 -0.88341,0.06509 -0.2725,0.04339 -0.47907,0.09112 -0.61971,0.143195 v 0 4.712426 c -0.33403,-0.138856 -0.71201,-0.256016 -1.13394,-0.351479 -0.42193,-0.09546 -0.87023,-0.143196 -1.3449,-0.143196 -0.8966,0 -1.73167,0.130178 -2.505205,0.390533 -0.773537,0.260355 -1.445988,0.659566 -2.017351,1.197633 -0.571363,0.538067 -1.024058,1.21933 -1.358086,2.043787 -0.334028,0.824458 -0.501041,1.809468 -0.501041,2.95503 0,2.204339 0.619709,3.840236 1.859127,4.907692 1.239418,1.067456 2.913956,1.601183 5.023596,1.601183 z m -0.0264,-2.629585 c -1.0724,0 -1.92066,-0.308087 -2.54476,-0.924261 -0.624104,-0.616173 -0.936156,-1.592505 -0.936156,-2.928994 0,-1.423274 0.325237,-2.447337 0.975712,-3.072189 0.650474,-0.624852 1.467964,-0.937278 2.452464,-0.937278 0.40435,0 0.78233,0.05207 1.13394,0.156213 0.35161,0.104142 0.65926,0.234319 0.92297,0.390532 v 0 6.795267 c -0.22855,0.138856 -0.50544,0.260355 -0.83068,0.364497 -0.32523,0.104142 -0.7164,0.156213 -1.17349,0.156213 z m 14.57815,2.629585 c 0.65048,0 1.257,-0.05207 1.81957,-0.156213 0.56258,-0.104142 1.05043,-0.251676 1.46357,-0.442603 0.41314,-0.190927 0.73838,-0.420907 0.97572,-0.689941 0.23733,-0.269033 0.356,-0.57712 0.356,-0.92426 0,-0.277712 -0.0791,-0.538067 -0.23734,-0.781065 -0.15822,-0.242998 -0.3604,-0.433925 -0.60652,-0.572781 -0.38677,0.242998 -0.89221,0.472978 -1.51631,0.68994 -0.6241,0.216963 -1.30535,0.325444 -2.04372,0.325444 -0.98451,0 -1.81078,-0.199605 -2.47884,-0.598816 -0.66805,-0.399211 -1.12515,-1.04142 -1.37127,-1.926628 v 0 l 7.33103,-1.04142 c 0.45709,-0.06943 0.81309,-0.225641 1.06801,-0.468639 C 121.87254,23.691913 122,23.327416 122,22.84142 c 0,-0.781065 -0.14504,-1.50572 -0.43511,-2.173964 -0.29008,-0.668245 -0.69004,-1.241026 -1.19987,-1.718344 -0.50983,-0.477317 -1.12514,-0.850493 -1.84594,-1.119526 -0.7208,-0.269034 -1.51191,-0.403551 -2.37335,-0.403551 -0.84386,0 -1.64377,0.130178 -2.39973,0.390533 -0.75596,0.260355 -1.41962,0.659566 -1.99098,1.197633 -0.57136,0.538067 -1.02406,1.206312 -1.35808,2.004734 -0.33403,0.798422 -0.50105,1.7357 -0.50105,2.811834 0,1.110848 0.17141,2.08284 0.51423,2.915977 0.34282,0.833136 0.81749,1.531755 1.42401,2.095858 0.60653,0.564102 1.33611,0.985009 2.18876,1.262721 0.85265,0.277712 1.7976,0.416568 2.83484,0.416568 z m -3.85011,-7.368047 c 0.0703,-1.04142 0.39556,-1.844181 0.97572,-2.408284 0.58015,-0.564102 1.30095,-0.846154 2.16239,-0.846154 0.86144,0 1.51191,0.238659 1.95142,0.715977 0.43951,0.477317 0.69443,1.037081 0.76475,1.67929 v 0 z"
           id="UpToCode"
           fill="#ffffff"
           fill-rule="nonzero"
           sodipodi:nodetypes="ssssscssssscssssscssssscssssssssccssssssssssscsscssssssccsssssssssccssssscsssssccssssssssssssssssssssssssssssssscssscssssssscsssssssssssssssssssssssssssssssssssssssssscsscsssssccsssssssssssssssccsssssssscssssccsssssssssssssscsssscc" />
        <g
           id="logomark"
           transform="translate(132)">
          <path
             d="M 18.361098,0.21814468 0.44322729,13.348061 C 0.15022489,13.574712 0.00816301,13.717934 0,13.967397 0,20.697885 0,27.465113 0,34.20725 0,34.622334 0.40952391,35 0.85961961,35 H 37.138529 c 0.450096,0 0.859575,-0.377666 0.859618,-0.79275 V 14.177971 c 0.01934,-0.40588 -0.111356,-0.567023 -0.456629,-0.842297 L 19.69081,0.2429181 c -0.426581,-0.32442487 -0.897404,-0.31500304 -1.329712,-0.0247734 z"
             id="Path"
             fill="#ffffff" />
          <path
             d="m 7.68,19.05 c 0.585,-0.585 1.53,-0.585 2.115,0 v 0 l 7.32,7.35 -1.05,1.05 c -0.585,0.585 -1.53,0.585 -2.115,0 v 0 L 7.68,21.18 c -0.585,-0.585 -0.585,-1.545 0,-2.13 z m 28.05425,-7.04 1.807268,1.325674 c 0.287385,0.229122 0.426114,0.379175 0.453401,0.657096 L 24.54,27.435 c -0.585,0.585 -1.53,0.585 -2.115,0 v 0 l -6.27,-6.27 c -0.585,-0.585 -0.585,-1.53 0,-2.115 0.585,-0.585 1.53,-0.585 2.115,0 v 0 l 5.22,5.205 z m -4.96,-3.638 2.429,1.781 L 23.49,20.025 21.375,17.91 Z"
             id="Combined-Shape"
             fill="#000000" />
        </g>
      </g>
    </g>
  </g>
  <metadata
     id="metadata323">
    <rdf:RDF>
      <cc:Work
         rdf:about="">
        <dc:title>CB1059C1-FF6E-4BD6-A0BD-CEEB03527442@1.5x</dc:title>
      </cc:Work>
    </rdf:RDF>
  </metadata>
</svg>
