<?xml version="1.0" encoding="UTF-8"?>
<svg width="170px" height="35px" viewBox="0 0 170 35" version="1.1" xmlns="http://www.w3.org/2000/svg" xmlns:xlink="http://www.w3.org/1999/xlink">
    <title>8AB786BB-9B00-4927-94C2-B44CF2762368@1.5x</title>
    <g id="up-to.-code" stroke="none" stroke-width="1" fill="none" fill-rule="evenodd">
        <g id="logo" transform="translate(-606.000000, -231.000000)">
            <g id="horiztonal-colored-light" transform="translate(606.000000, 231.000000)">
                <path d="M6.67176263,30.547929 C7.72658676,30.547929 8.66713827,30.4047337 9.49341717,30.1183432 C10.3196961,29.8319527 11.0229122,29.4240631 11.6030654,28.8946746 C12.1832187,28.365286 12.6227288,27.7317554 12.9215956,26.9940828 C13.2204624,26.2564103 13.3698959,25.4276134 13.3698959,24.5076923 L13.3698959,24.5076923 L13.3698959,15.7076923 C13.3698959,15.1001972 13.2204624,14.6836292 12.9215956,14.4579882 C12.6227288,14.2323471 12.1568481,14.1195266 11.5239536,14.1195266 C11.2250868,14.1195266 10.92622,14.1455621 10.6273531,14.1976331 C10.3284863,14.2497041 10.099941,14.2930966 9.94171743,14.3278107 L9.94171743,14.3278107 L9.94171743,24.3775148 C9.94171743,25.4710059 9.63406039,26.3084813 9.01874632,26.8899408 C8.40343224,27.4714004 7.62110434,27.7621302 6.67176263,27.7621302 C5.72242091,27.7621302 4.94009301,27.4714004 4.32477893,26.8899408 C3.70946486,26.3084813 3.40180782,25.4710059 3.40180782,24.3775148 L3.40180782,24.3775148 L3.40180782,15.7076923 C3.40180782,15.1001972 3.2567695,14.6836292 2.96669287,14.4579882 C2.67661623,14.2323471 2.21513067,14.1195266 1.5822362,14.1195266 C1.28336936,14.1195266 0.980107421,14.1455621 0.672450383,14.1976331 C0.364793345,14.2497041 0.140643217,14.2930966 0,14.3278107 L0,14.3278107 L0,24.5076923 C0,25.4276134 0.149433418,26.2564103 0.448300255,26.9940828 C0.747167092,27.7317554 1.18228205,28.365286 1.75364512,28.8946746 C2.32500819,29.4240631 3.02382917,29.8319527 3.85010808,30.1183432 C4.67638698,30.4047337 5.61693849,30.547929 6.67176263,30.547929 Z M18.296404,35 C18.6304316,35 18.9292985,34.9739645 19.1930045,34.9218935 C19.4567106,34.8698225 19.6676754,34.82643 19.825899,34.791716 L19.825899,34.791716 L19.825899,30.0011834 C20.177507,30.1400394 20.568671,30.2571992 20.9993908,30.3526627 C21.4301107,30.4481262 21.9003865,30.495858 22.4102181,30.495858 C23.324399,30.495858 24.1638632,30.357002 24.9286107,30.0792899 C25.6933582,29.8015779 26.3526233,29.3850099 26.906406,28.8295858 C27.4601886,28.2741617 27.8953036,27.5885602 28.2117508,26.7727811 C28.5281981,25.957002 28.6864217,25.0023669 28.6864217,23.9088757 C28.6864217,22.7806706 28.5194079,21.8086785 28.1853802,20.9928994 C27.8513526,20.1771203 27.3854719,19.5045365 26.7877383,18.9751479 C26.1900046,18.4457594 25.4823934,18.0552268 24.6649047,17.8035503 C23.847416,17.5518738 22.9552106,17.4260355 21.9882885,17.4260355 C21.0389467,17.4260355 20.1862972,17.5345168 19.4303399,17.7514793 C18.6743827,17.9684418 18.0414882,18.2244576 17.5316565,18.5195266 C17.1624681,18.7451677 16.8943669,18.9881657 16.7273531,19.2485207 C16.5603393,19.5088757 16.4768324,19.8473373 16.4768324,20.2639053 L16.4768324,20.2639053 L16.4768324,33.4639053 C16.4768324,34.0366864 16.6262658,34.4358974 16.9251326,34.6615385 C17.2239995,34.8871795 17.6810899,35 18.296404,35 Z M21.9091767,27.8662722 C21.4696666,27.8662722 21.0785027,27.8142012 20.7356848,27.7100592 C20.392867,27.6059172 20.0808148,27.4670611 19.7995284,27.2934911 L19.7995284,27.2934911 L19.7995284,20.6023669 C20.0632344,20.4635108 20.3752866,20.3333333 20.7356848,20.2118343 C21.0960831,20.0903353 21.5136176,20.0295858 21.9882885,20.0295858 C22.9552106,20.0295858 23.7463287,20.3246548 24.3616428,20.9147929 C24.9769568,21.504931 25.2846139,22.5029586 25.2846139,23.9088757 C25.2846139,25.2627219 24.985747,26.2607495 24.3880134,26.9029586 C23.7902797,27.5451677 22.9640008,27.8662722 21.9091767,27.8662722 Z M41.2556101,30.3136095 C41.5720574,30.3136095 41.8797144,30.287574 42.1785813,30.235503 C42.4774481,30.183432 42.6972031,30.1400394 42.8378463,30.1053254 L42.8378463,30.1053254 L42.8378463,17.087574 L46.4769896,17.087574 C46.8637584,17.087574 47.1670204,16.966075 47.3867754,16.7230769 C47.6065304,16.4800789 47.7164079,16.1242604 47.7164079,15.6556213 C47.7164079,15.3779093 47.676852,15.1218935 47.5977402,14.887574 C47.5186284,14.6532544 47.4351215,14.4666667 47.3472195,14.3278107 L47.3472195,14.3278107 L35.8496365,14.3278107 C35.4628676,14.3278107 35.1596057,14.4449704 34.9398507,14.6792899 C34.7200956,14.9136095 34.6102181,15.2737673 34.6102181,15.7597633 C34.6102181,16.0374753 34.649774,16.2891519 34.7288858,16.5147929 C34.8079976,16.7404339 34.8915046,16.9313609 34.9794066,17.087574 L34.9794066,17.087574 L39.4096679,17.087574 L39.4096679,28.7254438 C39.4096679,29.2982249 39.5503111,29.7061144 39.8315976,29.9491124 C40.112884,30.1921105 40.5875549,30.3136095 41.2556101,30.3136095 Z M53.6977402,30.5218935 C54.6822427,30.5218935 55.5700531,30.3700197 56.3611712,30.0662722 C57.1522893,29.7625247 57.8291347,29.3242604 58.3917076,28.7514793 C58.9542805,28.1786982 59.3893954,27.4887574 59.6970525,26.6816568 C60.0047095,25.8745562 60.158538,24.9676529 60.158538,23.9609467 C60.158538,22.9715976 60.0047095,22.0733728 59.6970525,21.2662722 C59.3893954,20.4591716 58.9498854,19.7692308 58.3785223,19.1964497 C57.8071592,18.6236686 57.1259186,18.1854043 56.3348006,17.8816568 C55.5436825,17.5779093 54.6646623,17.4260355 53.6977402,17.4260355 C52.7308181,17.4260355 51.851798,17.5779093 51.0606799,17.8816568 C50.2695618,18.1854043 49.5883212,18.6193294 49.0169581,19.183432 C48.4455951,19.7475345 48.006085,20.4331361 47.698428,21.2402367 C47.3907709,22.0473373 47.2369424,22.9542406 47.2369424,23.9609467 C47.2369424,24.9850099 47.3907709,25.9005917 47.698428,26.7076923 C48.006085,27.5147929 48.4412,28.2003945 49.0037728,28.764497 C49.5663457,29.3285996 50.2431912,29.7625247 51.0343093,30.0662722 C51.8254274,30.3700197 52.7132377,30.5218935 53.6977402,30.5218935 Z M53.6977402,27.8923077 C52.7308181,27.8923077 51.9792559,27.5538462 51.4430536,26.8769231 C50.9068514,26.2 50.6387502,25.2280079 50.6387502,23.9609467 C50.6387502,22.7112426 50.9112465,21.7435897 51.4562389,21.0579882 C52.0012314,20.3723866 52.7483985,20.0295858 53.6977402,20.0295858 C54.6470819,20.0295858 55.394249,20.3723866 55.9392415,21.0579882 C56.484234,21.7435897 56.7567302,22.7112426 56.7567302,23.9609467 C56.7567302,25.2106509 56.4886291,26.1783037 55.9524268,26.8639053 C55.4162245,27.5495069 54.6646623,27.8923077 53.6977402,27.8923077 Z M74.8901159,30.547929 C75.8394577,30.547929 76.6349709,30.4568047 77.2766555,30.2745562 C77.9183402,30.0923077 78.4149866,29.8970414 78.7665946,29.6887574 C79.1357831,29.4978304 79.3994891,29.2808679 79.5577127,29.0378698 C79.7159363,28.7948718 79.7950481,28.5258383 79.7950481,28.2307692 C79.7950481,27.8836292 79.7159363,27.5755424 79.5577127,27.3065089 C79.3994891,27.0374753 79.1973145,26.8248521 78.9511888,26.6686391 C78.4940984,26.9637081 77.9710814,27.2197239 77.3821379,27.4366864 C76.7931945,27.6536489 76.0943735,27.7621302 75.285675,27.7621302 C73.7385996,27.7621302 72.5079714,27.3021696 71.5937905,26.3822485 C70.6796096,25.4623274 70.2225192,24.0824458 70.2225192,22.2426036 C70.2225192,20.4374753 70.6664243,19.0575937 71.5542346,18.1029586 C72.4420449,17.1483235 73.6331172,16.6710059 75.1274514,16.6710059 C75.9537303,16.6710059 76.6481562,16.7925049 77.210729,17.035503 C77.7733019,17.278501 78.2831336,17.5475345 78.740224,17.8426036 C78.9863496,17.7037475 79.2061047,17.5084813 79.3994891,17.2568047 C79.5928735,17.0051282 79.6895657,16.7057199 79.6895657,16.3585799 C79.6895657,16.0287968 79.5752931,15.7163708 79.3467479,15.4213018 C79.1182027,15.1262327 78.784175,14.8658777 78.344665,14.6402367 C77.9051549,14.4145957 77.3777428,14.2366864 76.7624288,14.1065089 C76.1471147,13.9763314 75.461479,13.9112426 74.7055217,13.9112426 C73.6155368,13.9112426 72.5826882,14.0934911 71.6069758,14.4579882 C70.6312635,14.8224852 69.778614,15.356213 69.0490273,16.0591716 C68.3194406,16.7621302 67.7436825,17.6299803 67.3217528,18.6627219 C66.8998231,19.6954635 66.6888583,20.8887574 66.6888583,22.2426036 C66.6888583,23.6485207 66.8998231,24.8721893 67.3217528,25.9136095 C67.7436825,26.9550296 68.3238357,27.8185404 69.0622126,28.504142 C69.8005895,29.1897436 70.6664243,29.7017751 71.659717,30.0402367 C72.6530098,30.3786982 73.7298094,30.547929 74.8901159,30.547929 Z M87.332246,30.5218935 C88.3167485,30.5218935 89.2045589,30.3700197 89.995677,30.0662722 C90.786795,29.7625247 91.4636405,29.3242604 92.0262134,28.7514793 C92.5887863,28.1786982 93.0239012,27.4887574 93.3315583,26.6816568 C93.6392153,25.8745562 93.7930438,24.9676529 93.7930438,23.9609467 C93.7930438,22.9715976 93.6392153,22.0733728 93.3315583,21.2662722 C93.0239012,20.4591716 92.5843912,19.7692308 92.0130281,19.1964497 C91.441665,18.6236686 90.7604244,18.1854043 89.9693063,17.8816568 C89.1781882,17.5779093 88.2991681,17.4260355 87.332246,17.4260355 C86.3653239,17.4260355 85.4863038,17.5779093 84.6951857,17.8816568 C83.9040676,18.1854043 83.222827,18.6193294 82.6514639,19.183432 C82.0801009,19.7475345 81.6405908,20.4331361 81.3329338,21.2402367 C81.0252767,22.0473373 80.8714482,22.9542406 80.8714482,23.9609467 C80.8714482,24.9850099 81.0252767,25.9005917 81.3329338,26.7076923 C81.6405908,27.5147929 82.0757058,28.2003945 82.6382786,28.764497 C83.2008515,29.3285996 83.877697,29.7625247 84.6688151,30.0662722 C85.4599332,30.3700197 86.3477435,30.5218935 87.332246,30.5218935 Z M87.332246,27.8923077 C86.3653239,27.8923077 85.6137617,27.5538462 85.0775594,26.8769231 C84.5413572,26.2 84.273256,25.2280079 84.273256,23.9609467 C84.273256,22.7112426 84.5457523,21.7435897 85.0907447,21.0579882 C85.6357372,20.3723866 86.3829043,20.0295858 87.332246,20.0295858 C88.2815877,20.0295858 89.0287548,20.3723866 89.5737473,21.0579882 C90.1187398,21.7435897 90.391236,22.7112426 90.391236,23.9609467 C90.391236,25.2106509 90.1231349,26.1783037 89.5869326,26.8639053 C89.0507303,27.5495069 88.2991681,27.8923077 87.332246,27.8923077 Z M102.305954,30.5218935 C103.255296,30.5218935 104.090365,30.4047337 104.811161,30.1704142 C105.531958,29.9360947 106.112111,29.6800789 106.551621,29.4023669 C106.903229,29.1767258 107.166935,28.9424063 107.342739,28.6994083 C107.518543,28.4564103 107.606445,28.1353057 107.606445,27.7360947 L107.606445,27.7360947 L107.606445,14.5360947 C107.606445,13.9633136 107.461407,13.5641026 107.17133,13.3384615 C106.881254,13.1128205 106.419768,13 105.786874,13 C105.470426,13 105.175955,13.0216963 104.903458,13.0650888 C104.630962,13.1084813 104.424392,13.156213 104.283749,13.208284 L104.283749,13.208284 L104.283749,17.9207101 C103.949722,17.781854 103.571743,17.6646943 103.149813,17.5692308 C102.727884,17.4737673 102.279583,17.4260355 101.804913,17.4260355 C100.908312,17.4260355 100.073243,17.556213 99.2997052,17.816568 C98.5261676,18.0769231 97.8537172,18.4761341 97.2823541,19.0142012 C96.710991,19.5522682 96.2582957,20.2335306 95.924268,21.0579882 C95.5902404,21.8824458 95.4232266,22.8674556 95.4232266,24.0130178 C95.4232266,26.217357 96.0429357,27.8532544 97.2823541,28.9207101 C98.5217725,29.9881657 100.196306,30.5218935 102.305954,30.5218935 Z M102.279583,27.8923077 C101.207179,27.8923077 100.358924,27.5842209 99.7348202,26.9680473 C99.1107159,26.3518738 98.7986638,25.3755424 98.7986638,24.0390533 C98.7986638,22.6157791 99.1239012,21.591716 99.7743761,20.9668639 C100.424851,20.3420118 101.24234,20.0295858 102.226842,20.0295858 C102.631191,20.0295858 103.00917,20.0816568 103.360778,20.1857988 C103.712386,20.2899408 104.020043,20.4201183 104.283749,20.5763314 L104.283749,20.5763314 L104.283749,27.3715976 C104.055204,27.5104536 103.778313,27.6319527 103.453075,27.7360947 C103.127838,27.8402367 102.736674,27.8923077 102.279583,27.8923077 Z M116.857732,30.5218935 C117.508207,30.5218935 118.114731,30.4698225 118.677304,30.3656805 C119.239877,30.2615385 119.727733,30.1140039 120.140872,29.9230769 C120.554012,29.7321499 120.879249,29.5021696 121.116585,29.2331361 C121.35392,28.9641026 121.472588,28.6560158 121.472588,28.3088757 C121.472588,28.0311637 121.393476,27.7708087 121.235253,27.5278107 C121.077029,27.2848126 120.874854,27.0938856 120.628729,26.9550296 C120.24196,27.1980276 119.736523,27.4280079 119.112419,27.6449704 C118.488315,27.8619329 117.807074,27.9704142 117.068697,27.9704142 C116.084195,27.9704142 115.257916,27.7708087 114.58986,27.3715976 C113.921805,26.9723866 113.464715,26.3301775 113.218589,25.4449704 L113.218589,25.4449704 L120.549617,24.4035503 C121.006707,24.3341223 121.36271,24.1779093 121.617626,23.9349112 C121.872542,23.6919132 122,23.3274162 122,22.8414201 C122,22.060355 121.854962,21.3357002 121.564885,20.6674556 C121.274808,19.999211 120.874854,19.42643 120.365023,18.9491124 C119.855191,18.4717949 119.239877,18.0986193 118.51908,17.8295858 C117.798284,17.5605523 117.007166,17.4260355 116.145726,17.4260355 C115.301867,17.4260355 114.501958,17.556213 113.746001,17.816568 C112.990044,18.0769231 112.326384,18.4761341 111.755021,19.0142012 C111.183658,19.5522682 110.730962,20.2205128 110.396935,21.0189349 C110.062907,21.817357 109.895893,22.7546351 109.895893,23.8307692 C109.895893,24.9416174 110.067302,25.9136095 110.41012,26.7467456 C110.752938,27.5798817 111.227609,28.278501 111.834132,28.8426036 C112.440656,29.4067061 113.170243,29.8276134 114.022893,30.1053254 C114.875542,30.3830375 115.820489,30.5218935 116.857732,30.5218935 Z M113.007624,23.1538462 C113.077946,22.112426 113.403183,21.3096647 113.983337,20.7455621 C114.56349,20.1814596 115.284286,19.8994083 116.145726,19.8994083 C117.007166,19.8994083 117.657641,20.1380671 118.097151,20.6153846 C118.536661,21.0927022 118.791577,21.6524655 118.861898,22.2946746 L118.861898,22.2946746 L113.007624,23.1538462 Z" id="UpToCode" fill="#FFFFFF" fill-rule="nonzero"></path>
                <g id="logomark" transform="translate(132.000000, 0.000000)">
                    <path d="M18.3610982,0.218144675 L0.443227286,13.3480608 C0.150224887,13.5747119 0.00816301314,13.717934 0,13.9673965 C0,20.6978846 0,27.4651127 0,34.2072503 C0,34.6223341 0.40952391,35 0.859619612,35 L37.138529,35 C37.5886252,35 37.998104,34.6223341 37.9981469,34.2072503 L37.9981469,14.1779706 C38.0174885,13.7720907 37.8867909,13.6109485 37.5415176,13.3356741 L19.6908101,0.242918102 C19.2642291,-0.0815067661 18.793406,-0.0720849364 18.3610982,0.218144675 Z" id="Path" fill="#1A73E8"></path>
                    <path d="M7.68,19.05 C8.265,18.465 9.21,18.465 9.795,19.05 L9.795,19.05 L17.115,26.4 L16.065,27.45 C15.48,28.035 14.535,28.035 13.95,27.45 L13.95,27.45 L7.68,21.18 C7.095,20.595 7.095,19.635 7.68,19.05 Z M35.73425,12.01 L37.5415176,13.3356741 C37.8289028,13.5647963 37.9676317,13.7148487 37.9949186,13.9927697 L24.54,27.435 C23.955,28.02 23.01,28.02 22.425,27.435 L22.425,27.435 L16.155,21.165 C15.57,20.58 15.57,19.635 16.155,19.05 C16.74,18.465 17.685,18.465 18.27,19.05 L18.27,19.05 L23.49,24.255 L35.73425,12.01 Z M30.77425,8.372 L33.20325,10.153 L23.49,20.025 L21.375,17.91 L30.77425,8.372 Z" id="Combined-Shape" fill="#FFFFFF"></path>
                </g>
            </g>
        </g>
    </g>
</svg>