<?xml version="1.0" encoding="UTF-8" standalone="no"?>
<svg
   width="38"
   height="35"
   viewBox="0 0 38 35"
   version="1.1"
   id="svg11"
   sodipodi:docname="uptocode_logo_favicon.svg"
   inkscape:export-filename="uptocode_logo_favicon.svg"
   inkscape:export-xdpi="96"
   inkscape:export-ydpi="96"
   inkscape:version="1.2.1 (9c6d41e410, 2022-07-14)"
   xmlns:inkscape="http://www.inkscape.org/namespaces/inkscape"
   xmlns:sodipodi="http://sodipodi.sourceforge.net/DTD/sodipodi-0.dtd"
   xmlns="http://www.w3.org/2000/svg"
   xmlns:svg="http://www.w3.org/2000/svg"
   xmlns:rdf="http://www.w3.org/1999/02/22-rdf-syntax-ns#"
   xmlns:cc="http://creativecommons.org/ns#"
   xmlns:dc="http://purl.org/dc/elements/1.1/">
  <defs
     id="defs15" />
  <sodipodi:namedview
     id="namedview13"
     pagecolor="#ffffff"
     bordercolor="#000000"
     borderopacity="0.25"
     inkscape:showpageshadow="2"
     inkscape:pageopacity="0.0"
     inkscape:pagecheckerboard="0"
     inkscape:deskcolor="#d1d1d1"
     showgrid="false"
     inkscape:zoom="7.7058824"
     inkscape:cx="-50.026718"
     inkscape:cy="17.583969"
     inkscape:window-width="2560"
     inkscape:window-height="1361"
     inkscape:window-x="-9"
     inkscape:window-y="-9"
     inkscape:window-maximized="1"
     inkscape:current-layer="svg11" />
  <title
     id="title2">8AB786BB-9B00-4927-94C2-B44CF2762368@1.5x</title>
  <g
     id="up-to.-code"
     stroke="none"
     stroke-width="1"
     fill="none"
     fill-rule="evenodd"
     transform="translate(-132)">
    <g
       id="logo"
       transform="translate(-606,-231)">
      <g
         id="horiztonal-colored-light"
         transform="translate(606,231)">
        <g
           id="logomark"
           transform="translate(132)">
          <path
             d="M 18.361098,0.21814468 0.44322729,13.348061 C 0.15022489,13.574712 0.00816301,13.717934 0,13.967397 0,20.697885 0,27.465113 0,34.20725 0,34.622334 0.40952391,35 0.85961961,35 H 37.138529 c 0.450096,0 0.859575,-0.377666 0.859618,-0.79275 V 14.177971 c 0.01934,-0.40588 -0.111356,-0.567023 -0.456629,-0.842297 L 19.69081,0.2429181 c -0.426581,-0.32442487 -0.897404,-0.31500304 -1.329712,-0.0247734 z"
             id="Path"
             fill="#1a73e8" />
          <path
             d="m 7.68,19.05 c 0.585,-0.585 1.53,-0.585 2.115,0 v 0 l 7.32,7.35 -1.05,1.05 c -0.585,0.585 -1.53,0.585 -2.115,0 v 0 L 7.68,21.18 c -0.585,-0.585 -0.585,-1.545 0,-2.13 z m 28.05425,-7.04 1.807268,1.325674 c 0.287385,0.229122 0.426114,0.379175 0.453401,0.657096 L 24.54,27.435 c -0.585,0.585 -1.53,0.585 -2.115,0 v 0 l -6.27,-6.27 c -0.585,-0.585 -0.585,-1.53 0,-2.115 0.585,-0.585 1.53,-0.585 2.115,0 v 0 l 5.22,5.205 z m -4.96,-3.638 2.429,1.781 L 23.49,20.025 21.375,17.91 Z"
             id="Combined-Shape"
             fill="#ffffff" />
        </g>
      </g>
    </g>
  </g>
  <metadata
     id="metadata175">
    <rdf:RDF>
      <cc:Work
         rdf:about="">
        <dc:title>8AB786BB-9B00-4927-94C2-B44CF2762368@1.5x</dc:title>
      </cc:Work>
    </rdf:RDF>
  </metadata>
</svg>
